<svg width="40" height="40" viewBox="0 0 40 40" fill="none" xmlns="http://www.w3.org/2000/svg">
<style>
svg { overflow: visible; }
@keyframes kf___________transform_0 {
  0% {
    animation-timing-function: ease-in-out;
    transform: translateX(8.019px) translateY(8.128px) translate(11.981px, 11.981px) rotate(0rad) translate(-11.981px, -11.981px);
  }
  100% {
    transform: translateX(8.019px) translateY(8.128px) translate(11.981px, 11.981px) rotate(6.283rad) translate(-11.981px, -11.981px);
  }
}
@keyframes kf___________opacity_0 {
  0% {
    animation-timing-function: ease-in-out;
    opacity: 1;
  }
  20% {
    animation-timing-function: ease-in-out;
    opacity: 0;
  }
  40% {
    animation-timing-function: ease-in-out;
    opacity: 1;
  }
  60% {
    animation-timing-function: ease-in-out;
    opacity: 0;
  }
  80% {
    animation-timing-function: ease-in-out;
    opacity: 1;
  }
  100% {
    opacity: 0.8;
  }
}
#_________ {
  transform-origin: 0 0;
  animation:
    kf___________transform_0 2s linear infinite,
    kf___________opacity_0 2s linear infinite;
}
@keyframes kf_star_transform_0 {
  0% {
    animation-timing-function: ease-in-out;
    transform: translateX(8.019px) translateY(8.128px) translate(11.981px, 11.981px) rotate(0rad) translate(-11.981px, -11.981px);
  }
  100% {
    transform: translateX(8.019px) translateY(8.128px) translate(11.981px, 11.981px) rotate(6.283rad) translate(-11.981px, -11.981px);
  }
}
#star {
  transform-origin: 0 0;
  animation: kf_star_transform_0 2s linear infinite;
}
</style>
<g id="AI_01_b2">
<g id="Mask_group">
<g id="Group_209">
<circle id="Ellipse_6995" cx="20" cy="20" r="20" fill="url(#paint0_radial_2416_58568)"/>
<g id="Mask_group_2" filter="url(#filter0_f_2416_58568)" transform="translate(5.54832 2.43707)">
<mask id="mask0_2416_58568" style="mask-type:alpha" maskUnits="userSpaceOnUse" x="0" y="0" width="40" height="40">
<ellipse id="Ellipse_6996" cx="14.2857" cy="11.4286" rx="14.2857" ry="11.4286" fill="url(#paint1_linear_2416_58568)"/>
</mask>
<g mask="url(#mask0_2416_58568)">
<g id="Ellipse_6997" filter="url(#filter1_f_2416_58568)" transform="translate(-1.80845e-05 0.458677)">
<ellipse cx="14.2857" cy="11.4286" rx="14.2857" ry="11.4286" fill="url(#paint2_linear_2416_58568)"/>
</g>
</g>
</g>
<g id="_________" filter="url(#filter2_d_2416_58568)" transform="translate(8.01866 8.12789)">
<path d="M14.3958 20.387L13.1847 23.1625C12.719 24.2294 11.2437 24.2294 10.778 23.1625L9.56692 20.387C8.48887 17.917 6.54895 15.9506 4.12893 14.8761L0.794984 13.3956C-0.264995 12.9249 -0.264995 11.3822 0.794984 10.9115L4.02445 9.47693C6.50665 8.37461 8.48164 6.33555 9.54089 3.7813L10.7679 0.823217C11.223 -0.274406 12.7389 -0.274406 13.1944 0.823217L14.4214 3.7813C15.4807 6.33555 17.4557 8.37461 19.9379 9.47693L23.1677 10.9115C24.2277 11.3822 24.2277 12.9249 23.1677 13.3956L19.8337 14.8765C17.4134 15.9506 15.4734 17.917 14.3958 20.387Z" id="__________bg_0" fill="white">
</path>
</g>
<g id="star" filter="url(#filter3_d_2416_58568)" transform="translate(8.01866 8.12789)">
<path d="M14.3958 20.387L13.1847 23.1625C12.719 24.2294 11.2437 24.2294 10.778 23.1625L9.56692 20.387C8.48887 17.917 6.54895 15.9506 4.12893 14.8761L0.794984 13.3956C-0.264995 12.9249 -0.264995 11.3822 0.794984 10.9115L4.02445 9.47693C6.50665 8.37461 8.48164 6.33555 9.54089 3.7813L10.7679 0.823217C11.223 -0.274406 12.7389 -0.274406 13.1944 0.823217L14.4214 3.7813C15.4807 6.33555 17.4557 8.37461 19.9379 9.47693L23.1677 10.9115C24.2277 11.3822 24.2277 12.9249 23.1677 13.3956L19.8337 14.8765C17.4134 15.9506 15.4734 17.917 14.3958 20.387Z" id="star_bg_0" fill="white">
</path>
</g>
</g>
</g>
</g>
<defs>
<filter id="filter0_f_2416_58568" x="-0.369048" y="0.0896926" width="29.3094" height="23.1365" filterUnits="userSpaceOnUse" color-interpolation-filters="sRGB">
<feFlood flood-opacity="0" result="BackgroundImageFix"/>
<feBlend mode="normal" in="SourceGraphic" in2="BackgroundImageFix" result="shape"/>
<feGaussianBlur stdDeviation="0.184524" result="effect1_foregroundBlur_2416_58568"/>
</filter>
<filter id="filter1_f_2416_58568" x="-0.333333" y="-0.333333" width="29.238" height="23.5238" filterUnits="userSpaceOnUse" color-interpolation-filters="sRGB">
<feFlood flood-opacity="0" result="BackgroundImageFix"/>
<feBlend mode="normal" in="SourceGraphic" in2="BackgroundImageFix" result="shape"/>
<feGaussianBlur stdDeviation="0.166667" result="effect1_foregroundBlur_2416_58568"/>
</filter>
<filter id="filter2_d_2416_58568" x="-5.11111" y="-3.62963" width="34.1851" height="34.1849" filterUnits="userSpaceOnUse" color-interpolation-filters="sRGB">
<feFlood flood-opacity="0" result="BackgroundImageFix"/>
<feColorMatrix in="SourceAlpha" type="matrix" values="0 0 0 0 0 0 0 0 0 0 0 0 0 0 0 0 0 0 127 0" result="hardAlpha"/>
<feOffset dy="1.48148"/>
<feGaussianBlur stdDeviation="2.55556"/>
<feComposite in2="hardAlpha" operator="out"/>
<feColorMatrix type="matrix" values="0 0 0 0 1 0 0 0 0 0.977991 0 0 0 0 0.339743 0 0 0 1 0"/>
<feBlend mode="normal" in2="BackgroundImageFix" result="effect1_dropShadow_2416_58568"/>
<feBlend mode="normal" in="SourceGraphic" in2="effect1_dropShadow_2416_58568" result="shape"/>
</filter>
<filter id="filter3_d_2416_58568" x="-2.96296" y="-1.48148" width="29.8888" height="29.8886" filterUnits="userSpaceOnUse" color-interpolation-filters="sRGB">
<feFlood flood-opacity="0" result="BackgroundImageFix"/>
<feColorMatrix in="SourceAlpha" type="matrix" values="0 0 0 0 0 0 0 0 0 0 0 0 0 0 0 0 0 0 127 0" result="hardAlpha"/>
<feOffset dy="1.48148"/>
<feGaussianBlur stdDeviation="1.48148"/>
<feComposite in2="hardAlpha" operator="out"/>
<feColorMatrix type="matrix" values="0 0 0 0 0.645833 0 0 0 0 0.206976 0 0 0 0 0.0807292 0 0 0 0.49 0"/>
<feBlend mode="normal" in2="BackgroundImageFix" result="effect1_dropShadow_2416_58568"/>
<feBlend mode="normal" in="SourceGraphic" in2="effect1_dropShadow_2416_58568" result="shape"/>
</filter>
<radialGradient id="paint0_radial_2416_58568" cx="0" cy="0" r="1" gradientUnits="userSpaceOnUse" gradientTransform="translate(19.9286 0.922619) rotate(89.892) scale(37.9108 28.8119)">
<stop stop-color="#FEA523"/>
<stop offset="0.450968" stop-color="#FA451A"/>
<stop offset="0.711538" stop-color="#FC521F"/>
<stop offset="1" stop-color="#F9983D"/>
</radialGradient>
<linearGradient id="paint1_linear_2416_58568" x1="14.2857" y1="0" x2="14.3599" y2="14.9965" gradientUnits="userSpaceOnUse">
<stop stop-color="#FBF09B"/>
<stop offset="1" stop-color="#FFDC74" stop-opacity="0"/>
</linearGradient>
<linearGradient id="paint2_linear_2416_58568" x1="14.2857" y1="0" x2="14.2857" y2="22.8577" gradientUnits="userSpaceOnUse">
<stop stop-color="#FBF09B"/>
<stop offset="1" stop-color="#FFDC74"/>
</linearGradient>
</defs>
</svg>
